{
  "asset": {
    "generator": "glTF-Transform v4.5.0",
    "version": "2.0"
  },
  "accessors": [
    {
      "type": "VEC3",
      "componentType": 5126,
      "count": 5784,
      "max": [
        1.2416797876358032,
        2.599152088165283,
        2.2639734745025635
      ],
      "min": [
        -1.1161692142486572,
        -0.017011718824505806,
        -0.45452672243118286
      ],
      "bufferView": 0,
      "byteOffset": 0
    },
    {
      "type": "VEC3",
      "componentType": 5126,
      "count": 5784,
      "bufferView": 0,
      "byteOffset": 12
    },
    {
      "type": "VEC2",
      "componentType": 5126,
      "count": 5784,
      "bufferView": 0,
      "byteOffset": 24
    },
    {
      "type": "SCALAR",
      "componentType": 5125,
      "count": 28662,
      "bufferView": 1,
      "byteOffset": 0
    },
    {
      "type": "SCALAR",
      "componentType": 5125,
      "count": 71928,
      "bufferView": 1,
      "byteOffset": 114648
    },
    {
      "type": "SCALAR",
      "componentType": 5125,
      "count": 24444,
      "bufferView": 1,
      "byteOffset": 402360
    },
    {
      "type": "VEC3",
      "componentType": 5126,
      "count": 47952,
      "max": [
        2.0047402381896973,
        3.393831968307495,
        2.956526041030884
      ],
      "min": [
        -1.8742696046829224,
        1.2377465963363647,
        -1.1226915121078491
      ],
      "bufferView": 2,
      "byteOffset": 0
    },
    {
      "type": "VEC3",
      "componentType": 5126,
      "count": 47952,
      "bufferView": 2,
      "byteOffset": 12
    },
    {
      "type": "VEC2",
      "componentType": 5126,
      "count": 47952,
      "bufferView": 2,
      "byteOffset": 24
    },
    {
      "type": "VEC3",
      "componentType": 5126,
      "count": 47952,
      "bufferView": 2,
      "byteOffset": 32
    },
    {
      "type": "VEC3",
      "componentType": 5126,
      "count": 8455,
      "max": [
        2.155407428741455,
        3.339240789413452,
        2.8155288696289062
      ],
      "min": [
        -2.052337884902954,
        1.3192050457000732,
        -0.968892514705658
      ],
      "bufferView": 3,
      "byteOffset": 0
    },
    {
      "type": "VEC3",
      "componentType": 5126,
      "count": 8455,
      "bufferView": 3,
      "byteOffset": 12
    },
    {
      "type": "VEC2",
      "componentType": 5126,
      "count": 8455,
      "bufferView": 3,
      "byteOffset": 24
    }
  ],
  "bufferViews": [
    {
      "buffer": 0,
      "byteOffset": 0,
      "byteLength": 185088,
      "byteStride": 32,
      "target": 34962
    },
    {
      "buffer": 0,
      "byteOffset": 185088,
      "byteLength": 500136,
      "target": 34963
    },
    {
      "buffer": 0,
      "byteOffset": 685224,
      "byteLength": 2109888,
      "byteStride": 44,
      "target": 34962
    },
    {
      "buffer": 0,
      "byteOffset": 2795112,
      "byteLength": 270560,
      "byteStride": 32,
      "target": 34962
    }
  ],
  "samplers": [
    {
      "magFilter": 9729,
      "minFilter": 9987,
      "wrapS": 10497,
      "wrapT": 10497
    }
  ],
  "textures": [
    {
      "source": 1,
      "sampler": 0
    },
    {
      "source": 0,
      "sampler": 0
    },
    {
      "source": 2,
      "sampler": 0
    },
    {
      "source": 3,
      "sampler": 0
    },
    {
      "source": 5,
      "sampler": 0
    },
    {
      "source": 4,
      "sampler": 0
    },
    {
      "source": 6,
      "sampler": 0
    }
  ],
  "images": [
    {
      "name": "island_tree_02_nor_gl",
      "mimeType": "image/jpeg",
      "uri": "textures/island_tree_02_nor_gl_1k.jpg"
    },
    {
      "name": "island_tree_02_diff",
      "mimeType": "image/jpeg",
      "uri": "textures/island_tree_02_diff_1k.jpg"
    },
    {
      "name": "island_tree_02_rough",
      "mimeType": "image/jpeg",
      "uri": "textures/island_tree_02_arm_1k.jpg"
    },
    {
      "name": "island_tree_02_leaves_diff-island_tree_02_leaves_alpha",
      "mimeType": "image/png",
      "uri": "island_tree_02_leaves_diff_1k.png"
    },
    {
      "name": "island_tree_02_branches_nor_gl",
      "mimeType": "image/jpeg",
      "uri": "textures/island_tree_02_branches_nor_gl_1k.jpg"
    },
    {
      "name": "island_tree_02_branches_diff",
      "mimeType": "image/jpeg",
      "uri": "textures/island_tree_02_branches_diff_1k.jpg"
    },
    {
      "name": "island_tree_02_branches_rough",
      "mimeType": "image/jpeg",
      "uri": "textures/island_tree_02_branches_arm_1k.jpg"
    }
  ],
  "buffers": [
    {
      "uri": "island_tree_02.bin",
      "byteLength": 3065672
    }
  ],
  "materials": [
    {
      "name": "island_tree_02",
      "doubleSided": true,
      "pbrMetallicRoughness": {
        "metallicFactor": 0,
        "baseColorTexture": {
          "index": 0
        },
        "metallicRoughnessTexture": {
          "index": 2
        }
      },
      "normalTexture": {
        "index": 1
      }
    },
    {
      "name": "island_tree_02_leaves",
      "alphaMode": "MASK",
      "alphaCutoff": 0.5,
      "doubleSided": true,
      "pbrMetallicRoughness": {
        "metallicFactor": 0,
        "baseColorTexture": {
          "index": 3
        }
      }
    },
    {
      "name": "island_tree_02_branches",
      "doubleSided": true,
      "pbrMetallicRoughness": {
        "metallicFactor": 0,
        "baseColorTexture": {
          "index": 4,
          "extensions": {
            "KHR_texture_transform": {
              "offset": [
                0,
                -2.4000000953674316
              ],
              "scale": [
                15,
                3.4000000953674316
              ]
            }
          }
        },
        "metallicRoughnessTexture": {
          "index": 6,
          "extensions": {
            "KHR_texture_transform": {
              "offset": [
                0,
                -2.4000000953674316
              ],
              "scale": [
                15,
                3.4000000953674316
              ]
            }
          }
        }
      },
      "normalTexture": {
        "index": 5,
        "scale": 0.5,
        "extensions": {
          "KHR_texture_transform": {
            "offset": [
              0,
              -2.4000000953674316
            ],
            "scale": [
              15,
              3.4000000953674316
            ]
          }
        }
      },
      "extensions": {
        "KHR_materials_ior": {
          "ior": 1.4500000476837158
        },
        "KHR_materials_specular": {
          "specularFactor": 0.4100000262260437
        }
      }
    }
  ],
  "meshes": [
    {
      "name": "mesh.001",
      "primitives": [
        {
          "attributes": {
            "POSITION": 0,
            "NORMAL": 1,
            "TEXCOORD_0": 2
          },
          "mode": 4,
          "material": 0,
          "indices": 3
        },
        {
          "attributes": {
            "POSITION": 6,
            "NORMAL": 7,
            "TEXCOORD_0": 8,
            "_CENTER": 9
          },
          "mode": 4,
          "material": 1,
          "indices": 4
        },
        {
          "attributes": {
            "POSITION": 10,
            "NORMAL": 11,
            "TEXCOORD_0": 12
          },
          "mode": 4,
          "material": 2,
          "indices": 5
        }
      ]
    }
  ],
  "nodes": [
    {
      "name": "island_tree_02_LOD0",
      "mesh": 0
    }
  ],
  "scenes": [
    {
      "name": "Scene",
      "nodes": [
        0
      ]
    }
  ],
  "scene": 0,
  "extensionsUsed": [
    "KHR_materials_ior",
    "KHR_materials_specular",
    "KHR_texture_transform"
  ],
  "extensionsRequired": [
    "KHR_texture_transform"
  ]
}