{
  "asset": {
    "generator": "glTF-Transform v4.5.0",
    "version": "2.0"
  },
  "accessors": [
    {
      "type": "VEC3",
      "componentType": 5126,
      "count": 7356,
      "max": [
        1.7233905792236328,
        3.5597565174102783,
        1.2547868490219116
      ],
      "min": [
        -1.4278439283370972,
        -0.020327899605035782,
        -1.7314823865890503
      ],
      "bufferView": 0,
      "byteOffset": 0
    },
    {
      "type": "VEC3",
      "componentType": 5126,
      "count": 7356,
      "bufferView": 0,
      "byteOffset": 12
    },
    {
      "type": "VEC2",
      "componentType": 5126,
      "count": 7356,
      "bufferView": 0,
      "byteOffset": 24
    },
    {
      "type": "SCALAR",
      "componentType": 5125,
      "count": 36522,
      "bufferView": 1,
      "byteOffset": 0
    },
    {
      "type": "SCALAR",
      "componentType": 5125,
      "count": 106854,
      "bufferView": 1,
      "byteOffset": 146088
    },
    {
      "type": "SCALAR",
      "componentType": 5125,
      "count": 36396,
      "bufferView": 1,
      "byteOffset": 573504
    },
    {
      "type": "VEC3",
      "componentType": 5126,
      "count": 71236,
      "max": [
        2.4328062534332275,
        4.964054584503174,
        2.229917287826538
      ],
      "min": [
        -2.3606231212615967,
        0.6396329402923584,
        -2.579617500305176
      ],
      "bufferView": 2,
      "byteOffset": 0
    },
    {
      "type": "VEC3",
      "componentType": 5126,
      "count": 71236,
      "bufferView": 2,
      "byteOffset": 12
    },
    {
      "type": "VEC2",
      "componentType": 5126,
      "count": 71236,
      "bufferView": 2,
      "byteOffset": 24
    },
    {
      "type": "VEC3",
      "componentType": 5126,
      "count": 71236,
      "bufferView": 2,
      "byteOffset": 32
    },
    {
      "type": "VEC3",
      "componentType": 5126,
      "count": 12712,
      "max": [
        2.266033172607422,
        4.830078601837158,
        2.1925296783447266
      ],
      "min": [
        -2.1549487113952637,
        0.8254578113555908,
        -2.3537135124206543
      ],
      "bufferView": 3,
      "byteOffset": 0
    },
    {
      "type": "VEC3",
      "componentType": 5126,
      "count": 12712,
      "bufferView": 3,
      "byteOffset": 12
    },
    {
      "type": "VEC2",
      "componentType": 5126,
      "count": 12712,
      "bufferView": 3,
      "byteOffset": 24
    }
  ],
  "bufferViews": [
    {
      "buffer": 0,
      "byteOffset": 0,
      "byteLength": 235392,
      "byteStride": 32,
      "target": 34962
    },
    {
      "buffer": 0,
      "byteOffset": 235392,
      "byteLength": 719088,
      "target": 34963
    },
    {
      "buffer": 0,
      "byteOffset": 954480,
      "byteLength": 3134384,
      "byteStride": 44,
      "target": 34962
    },
    {
      "buffer": 0,
      "byteOffset": 4088864,
      "byteLength": 406784,
      "byteStride": 32,
      "target": 34962
    }
  ],
  "samplers": [
    {
      "magFilter": 9729,
      "minFilter": 9987,
      "wrapS": 10497,
      "wrapT": 10497
    }
  ],
  "textures": [
    {
      "source": 1,
      "sampler": 0
    },
    {
      "source": 0,
      "sampler": 0
    },
    {
      "source": 2,
      "sampler": 0
    },
    {
      "source": 3,
      "sampler": 0
    },
    {
      "source": 5,
      "sampler": 0
    },
    {
      "source": 4,
      "sampler": 0
    },
    {
      "source": 6,
      "sampler": 0
    }
  ],
  "images": [
    {
      "name": "island_tree_01_nor_gl",
      "mimeType": "image/jpeg",
      "uri": "textures/island_tree_01_nor_gl_1k.jpg"
    },
    {
      "name": "island_tree_01_diff",
      "mimeType": "image/jpeg",
      "uri": "textures/island_tree_01_diff_1k.jpg"
    },
    {
      "name": "island_tree_01_rough",
      "mimeType": "image/jpeg",
      "uri": "textures/island_tree_01_arm_1k.jpg"
    },
    {
      "name": "island_tree_01_leaves_diff-island_tree_01_leaves_alpha",
      "mimeType": "image/png",
      "uri": "island_tree_01_leaves_diff_1k.png"
    },
    {
      "name": "island_tree_01_branches_nor_gl",
      "mimeType": "image/jpeg",
      "uri": "textures/island_tree_01_branches_nor_gl_1k.jpg"
    },
    {
      "name": "island_tree_01_branches_diff",
      "mimeType": "image/jpeg",
      "uri": "textures/island_tree_01_branches_diff_1k.jpg"
    },
    {
      "name": "island_tree_01_branches_rough",
      "mimeType": "image/jpeg",
      "uri": "textures/island_tree_01_branches_arm_1k.jpg"
    }
  ],
  "buffers": [
    {
      "uri": "island_tree_01.bin",
      "byteLength": 4495648
    }
  ],
  "materials": [
    {
      "name": "island_tree_01",
      "doubleSided": true,
      "pbrMetallicRoughness": {
        "metallicFactor": 0,
        "baseColorTexture": {
          "index": 0
        },
        "metallicRoughnessTexture": {
          "index": 2
        }
      },
      "normalTexture": {
        "index": 1
      }
    },
    {
      "name": "island_tree_01_leaves",
      "alphaMode": "MASK",
      "alphaCutoff": 0.5,
      "doubleSided": true,
      "pbrMetallicRoughness": {
        "metallicFactor": 0,
        "baseColorTexture": {
          "index": 3
        }
      }
    },
    {
      "name": "island_tree_01_branches",
      "doubleSided": true,
      "pbrMetallicRoughness": {
        "metallicFactor": 0,
        "baseColorTexture": {
          "index": 4,
          "extensions": {
            "KHR_texture_transform": {
              "offset": [
                0,
                -2.4000000953674316
              ],
              "scale": [
                15,
                3.4000000953674316
              ]
            }
          }
        },
        "metallicRoughnessTexture": {
          "index": 6,
          "extensions": {
            "KHR_texture_transform": {
              "offset": [
                0,
                -2.4000000953674316
              ],
              "scale": [
                15,
                3.4000000953674316
              ]
            }
          }
        }
      },
      "normalTexture": {
        "index": 5,
        "scale": 0.5,
        "extensions": {
          "KHR_texture_transform": {
            "offset": [
              0,
              -2.4000000953674316
            ],
            "scale": [
              15,
              3.4000000953674316
            ]
          }
        }
      },
      "extensions": {
        "KHR_materials_ior": {
          "ior": 1.4500000476837158
        },
        "KHR_materials_specular": {
          "specularFactor": 0.4100000262260437
        }
      }
    }
  ],
  "meshes": [
    {
      "name": "island_trees_01_blockout_cleaned",
      "primitives": [
        {
          "attributes": {
            "POSITION": 0,
            "NORMAL": 1,
            "TEXCOORD_0": 2
          },
          "mode": 4,
          "material": 0,
          "indices": 3
        },
        {
          "attributes": {
            "POSITION": 6,
            "NORMAL": 7,
            "TEXCOORD_0": 8,
            "_CENTER": 9
          },
          "mode": 4,
          "material": 1,
          "indices": 4
        },
        {
          "attributes": {
            "POSITION": 10,
            "NORMAL": 11,
            "TEXCOORD_0": 12
          },
          "mode": 4,
          "material": 2,
          "indices": 5
        }
      ]
    }
  ],
  "nodes": [
    {
      "name": "island_tree_01_LOD0",
      "mesh": 0
    }
  ],
  "scenes": [
    {
      "name": "Scene",
      "nodes": [
        0
      ]
    }
  ],
  "scene": 0,
  "extensionsUsed": [
    "KHR_materials_ior",
    "KHR_materials_specular",
    "KHR_texture_transform"
  ],
  "extensionsRequired": [
    "KHR_texture_transform"
  ]
}